<svg width="108" height="36" viewBox="0 0 108 36" fill="none" xmlns="http://www.w3.org/2000/svg">
<g id="Layer_1" clip-path="url(#clip0_46_144)">
<path id="Vector" d="M30.6 18C30.6 24.96 24.96 30.6 18 30.6C14.52 30.6 11.3743 29.1857 9.09429 26.9057C6.81429 24.6257 5.4 21.4714 5.4 18C5.4 11.04 11.04 5.4 18 5.4C21.48 5.4 24.6257 6.81429 26.9057 9.09429L30.72 5.28C27.4714 2.01429 22.9714 0 18 0C8.05714 0 0 8.05714 0 18C0 22.9714 2.01429 27.4714 5.27143 30.7286C8.52857 33.9857 13.0286 36 18 36C27.9429 36 36 27.9429 36 18H30.6Z" fill="#87A922"/>
<path id="Vector_2" d="M54 5.4C60.96 5.4 66.6 11.04 66.6 18H72C72 13.3971 70.2429 8.78571 66.7286 5.27143C59.7 -1.75714 48.3 -1.75714 41.2714 5.27143C37.7571 8.78571 36 13.3886 36 18H41.4C41.4 11.04 47.04 5.4 54 5.4Z" fill="#87A922"/>
<path id="Vector_3" d="M54 30.6C47.04 30.6 41.4 24.96 41.4 18H36C36 22.6029 37.7571 27.2143 41.2714 30.7286C48.3 37.7571 59.7 37.7571 66.7286 30.7286L62.9143 26.9143C60.6343 29.1943 57.48 30.6086 54.0086 30.6086L54 30.6Z" fill="#87A922"/>
<path id="Vector_4" d="M54 18H66.6C66.6 14.52 65.1857 11.3743 62.9057 9.0943L54 18Z" fill="#87A922"/>
<path id="Vector_5" d="M54 18H41.4C41.4 14.52 42.8143 11.3743 45.0943 9.0943L54 18Z" fill="#87A922"/>
<path id="Vector_6" d="M102.6 18V0H108V18C108 27.9429 99.9429 36 90 36C80.0571 36 72 27.9429 72 18H77.4C77.4 24.96 83.04 30.6 90 30.6C96.96 30.6 102.6 24.96 102.6 18Z" fill="#87A922"/>
</g>
<defs>
<clipPath id="clip0_46_144">
<rect width="108" height="36" fill="white"/>
</clipPath>
</defs>
</svg>
