<svg width="36" height="80" viewBox="0 0 36 80" fill="none" xmlns="http://www.w3.org/2000/svg">
<g id="Layer_1" clip-path="url(#clip0_10_59)">
<path id="Vector" d="M18 2.61818C26.4829 2.61818 33.3818 9.51709 33.3818 18V39.6C33.3818 48.0829 26.4829 54.9818 18 54.9818C9.51709 54.9818 2.61818 48.0829 2.61818 39.6V18C2.61818 9.51709 9.51709 2.61818 18 2.61818ZM18 0C8.05745 0 0 8.05746 0 18V39.6C0 49.5425 8.05745 57.6 18 57.6C27.9425 57.6 36 49.5425 36 39.6V18C36 8.05746 27.9425 0 18 0Z" fill="#114232"/>
<path id="Vector_2" d="M16 19.3091C16 20.5723 17.0276 21.6 18.2909 21.6C19.5542 21.6 20.5818 20.5723 20.5818 19.3091V13.4182C20.5818 12.1549 19.5542 11.1273 18.2909 11.1273C17.0276 11.1273 16 12.1549 16 13.4182V19.3091Z" fill="#114232"/>
<g id="Group">
<path id="Vector (Stroke)" fill-rule="evenodd" clip-rule="evenodd" d="M30.8784 67.5619C31.3413 68.1174 31.2662 68.9428 30.7108 69.4057L18.929 79.2239C18.3736 79.6867 17.5481 79.6117 17.0853 79.0562C16.6224 78.5008 16.6975 77.6754 17.2529 77.2125L29.0347 67.3943C29.5901 66.9315 30.4156 67.0065 30.8784 67.5619Z" fill="#114232"/>
<path id="Vector (Stroke)_2" fill-rule="evenodd" clip-rule="evenodd" d="M5.30345 67.5619C5.7663 67.0065 6.59177 66.9315 7.14718 67.3943L18.929 77.2125C19.4844 77.6754 19.5595 78.5008 19.0966 79.0562C18.6338 79.6117 17.8083 79.6867 17.2529 79.2239L5.47106 69.4057C4.91565 68.9428 4.8406 68.1174 5.30345 67.5619Z" fill="#114232"/>
</g>
</g>
<defs>
<clipPath id="clip0_10_59">
<rect width="36" height="79.5273" fill="white"/>
</clipPath>
</defs>
</svg>
